{
  "title": "Divergent (2014) 720p BrRip x264-N3kr4",
  "uid": 10628733,
  "size": 1606946283,
  "categoryP": "video",
  "categoryS": "hd___movies",
  "magnet": "?xt=urn:btih:13299c02b02d7b0fc9cf66fd7c28ecc74c336e33&amp;dn=Divergent+%282014%29+720p+BrRip+x264-N3kr4&amp;tr=udp%3A%2F%2Ftracker.openbittorrent.com%3A80&amp;tr=udp%3A%2F%2Fopen.demonii.com%3A1337&amp;tr=udp%3A%2F%2Ftracker.coppersurfer.tk%3A6969&amp;tr=udp%3A%2F%2Fexodus.desync.com%3A6969",
  "seeders": 340,
  "leechers": 60,
  "uploader": "Falcon.G13",
  "files": 2,
  "time": 1406281518,
  "description": " &lt;a href=&quot;http://i.imgur.com/lXf2jEt.jpg&quot; rel=&quot;nofollow&quot; target=&quot;_NEW&quot;&gt;http://i.imgur.com/lXf2jEt.jpg&lt;/a&gt; &lt;a href=&quot;\nhttp://i.imgur.com/JOCNZ2F.jpg&quot; rel=&quot;nofollow&quot; target=&quot;_NEW&quot;&gt;\nhttp://i.imgur.com/JOCNZ2F.jpg&lt;/a&gt; &lt;a href=&quot;\nhttp://i.imgur.com/1A3XXUH.jpg&quot; rel=&quot;nofollow&quot; target=&quot;_NEW&quot;&gt;\nhttp://i.imgur.com/1A3XXUH.jpg&lt;/a&gt; &lt;a href=&quot;\nhttp://i.imgur.com/lOCB8X0.jpg&quot; rel=&quot;nofollow&quot; target=&quot;_NEW&quot;&gt;\nhttp://i.imgur.com/lOCB8X0.jpg&lt;/a&gt; &lt;a href=&quot;\nhttp://i.imgur.com/Col8WW7.jpg&quot; rel=&quot;nofollow&quot; target=&quot;_NEW&quot;&gt;\nhttp://i.imgur.com/Col8WW7.jpg&lt;/a&gt; &lt;a href=&quot;\nhttp://i.imgur.com/CPlA48M.jpg&quot; rel=&quot;nofollow&quot; target=&quot;_NEW&quot;&gt;\nhttp://i.imgur.com/CPlA48M.jpg&lt;/a&gt;\n\nGeneral\nComplete name :Divergent (2014) 720p BrRip x264-N3kr4.mp4\nFormat : MPEG-4\nFormat profile : Base Media\nCodec ID : isom\nFile size : 1.50 GiB\nDuration : 2h 19mn\nOverall bit rate : 1 534 Kbps\nWriting application : Lavf55.7.100\n\nVideo\nID : 1\nFormat : AVC\nFormat/Info : Advanced Video Codec\nFormat profile : &lt;a class=&quot;__cf_email__&quot; href=&quot;/cdn-cgi/l/email-protection&quot; data-cfemail=&quot;0c416d65624c4038223c&quot;&gt;[email&amp;#160;protected]&lt;/a&gt;&lt;script cf-hash='f9e31' type=&quot;text/javascript&quot;&gt;\n/* &lt;![CDATA[ */!function(){try{var t=&quot;currentScript&quot;in document?document.currentScript:function(){for(var t=document.getElementsByTagName(&quot;script&quot;),e=t.length;e--;)if(t[e].getAttribute(&quot;cf-hash&quot;))return t[e]}();if(t&amp;&amp;t.previousSibling){var e,r,n,i,c=t.previousSibling,a=c.getAttribute(&quot;data-cfemail&quot;);if(a){for(e=&quot;&quot;,r=parseInt(a.substr(0,2),16),n=2;a.length-n;n+=2)i=parseInt(a.substr(n,2),16)^r,e+=String.fromCharCode(i);e=document.createTextNode(e),c.parentNode.replaceChild(e,c)}}}catch(u){}}();/* ]]&gt; */&lt;/script&gt;\nFormat settings, CABAC : Yes\nFormat settings, ReFrames : 3 frames\nCodec ID : avc1\nCodec ID/Info : Advanced Video Coding\nDuration : 2h 19mn\nBit rate : 889 Kbps\nWidth : 1 280 pixels\nHeight : 536 pixels\nDisplay aspect ratio : 2.40:1\nFrame rate mode : Constant\nFrame rate : 23.976 fps\nColor space : YUV\nChroma subsampling : 4:2:0\nBit depth : 8 bits\nScan type : Progressive\nBits/(Pixel*Frame) : 0.054\nStream size : 888 MiB (58%)\nLanguage : English\n\nAudio\nID : 2\nFormat : AC-3\nFormat/Info : Audio Coding 3\nMode extension : CM (complete main)\nFormat settings, Endianness : Big\nCodec ID : ac-3\nDuration : 2h 19mn\nBit rate mode : Constant\nBit rate : 640 Kbps\nChannel(s) : 6 channels\nChannel positions : Front: L C R, Side: L R, LFE\nSampling rate : 48.0 KHz\nBit depth : 16 bits\nCompression mode : Lossy\nStream size : 639 MiB (42%)\nLanguage : English",
  "parsed": {
    "xt": "urn:btih:13299c02b02d7b0fc9cf66fd7c28ecc74c336e33",
    "dn": "Divergent (2014) 720p BrRip x264-N3kr4",
    "tr": [
      "udp://exodus.desync.com:6969",
      "udp://open.demonii.com:1337",
      "udp://tracker.coppersurfer.tk:6969",
      "udp://tracker.openbittorrent.com:80"
    ],
    "infoHash": "13299c02b02d7b0fc9cf66fd7c28ecc74c336e33",
    "infoHashBuffer": {
      "type": "Buffer",
      "data": [
        19,
        41,
        156,
        2,
        176,
        45,
        123,
        15,
        201,
        207,
        102,
        253,
        124,
        40,
        236,
        199,
        76,
        51,
        110,
        51
      ]
    },
    "name": "Divergent (2014) 720p BrRip x264-N3kr4",
    "announce": [
      "udp://exodus.desync.com:6969",
      "udp://open.demonii.com:1337",
      "udp://tracker.coppersurfer.tk:6969",
      "udp://tracker.openbittorrent.com:80"
    ],
    "urlList": []
  },
  "previous": 139,
  "peers": 29,
  "last_updated": "2016-12-26T16:53:39.126Z"
}